<svg width="41" height="41" viewBox="0 0 41 41" fill="none" xmlns="http://www.w3.org/2000/svg">
<path d="M31.4199 29.6787C29.9833 29.6787 28.5569 29.6787 27.1084 29.6787C27.1084 29.6094 27.1084 29.5448 27.1084 29.4801C27.1084 27.1456 27.1081 24.8111 27.1087 22.4769C27.1087 21.98 27.0718 21.4893 26.947 21.0047C26.4316 19.0061 24.2058 19.1229 23.3203 20.0701C22.8753 20.5461 22.5845 21.0841 22.5723 21.7489C22.5695 21.9071 22.5603 22.0656 22.5603 22.2237C22.5593 24.6398 22.5597 27.0561 22.5597 29.4721C22.5597 29.5374 22.5597 29.6027 22.5597 29.6775C21.1173 29.6775 19.6912 29.6775 18.2559 29.6775C18.2559 25.2222 18.2559 20.7714 18.2559 16.3124C19.6887 16.3124 21.1148 16.3124 22.5575 16.3124C22.5575 16.916 22.5575 17.5106 22.5575 18.1053C22.5689 18.1102 22.5802 18.1154 22.5919 18.1203C22.6227 18.0786 22.654 18.0375 22.6844 17.9955C23.1156 17.3966 23.6111 16.8657 24.2694 16.5067C25.0046 16.1055 25.7988 15.9709 26.6252 15.9948C27.5202 16.0209 28.3694 16.2223 29.1347 16.7038C30.1158 17.3212 30.7136 18.2245 31.0637 19.3081C31.3366 20.1525 31.426 21.0237 31.4269 21.9059C31.4291 24.4445 31.4279 26.9834 31.4276 29.5221C31.4276 29.5717 31.4229 29.6214 31.4199 29.6787Z" fill="#070707"/>
<path d="M15.6262 29.686C14.1946 29.686 12.7768 29.686 11.3455 29.686C11.3455 25.2282 11.3455 20.7728 11.3455 16.3086C12.7688 16.3086 14.1906 16.3086 15.6262 16.3086C15.6262 20.7624 15.6262 25.2175 15.6262 29.686Z" fill="#070707"/>
<path d="M13.6691 9.65625C15.0169 9.65441 15.9706 10.6129 15.9752 11.9738C15.9795 13.3204 15.0113 14.2733 13.6375 14.2739C12.2965 14.2748 11.3404 13.3161 11.3379 11.9686C11.3354 10.6202 12.3054 9.65809 13.6691 9.65625Z" fill="#070707"/>
<path d="M34.5749 0.642578H6.17579C2.93143 0.642578 0.291992 3.27494 0.291992 6.51061V34.8336C0.291992 38.0693 2.93143 40.7017 6.17579 40.7017H34.5749C37.8193 40.7017 40.4587 38.0693 40.4587 34.8336V6.51061C40.4587 3.27494 37.8193 0.642578 34.5749 0.642578ZM38.1052 34.8336C38.1052 36.775 36.5215 38.3544 34.5749 38.3544H6.17579C4.22923 38.3544 2.64551 36.775 2.64551 34.8336V6.51061C2.64551 4.56927 4.22923 2.98979 6.17579 2.98979H34.5749C36.5215 2.98979 38.1052 4.56927 38.1052 6.51061V34.8336Z" fill="#070707"/>
</svg>
